<?xml version="1.0" encoding="UTF-8" standalone="no" ?>
<!DOCTYPE svg PUBLIC "-//W3C//DTD SVG 1.1//EN" "http://www.w3.org/Graphics/SVG/1.1/DTD/svg11.dtd">
<svg xmlns="http://www.w3.org/2000/svg" xmlns:xlink="http://www.w3.org/1999/xlink" version="1.1" width="1080" height="1080" viewBox="0 0 1080 1080" xml:space="preserve">
<desc>Created with Fabric.js 5.2.4</desc>
<defs>
</defs>
<g transform="matrix(1 0 0 1 540 540)" id="2252b32b-e26e-4e50-8cd9-f890edebdac7"  >
<rect style="stroke: none; stroke-width: 1; stroke-dasharray: none; stroke-linecap: butt; stroke-dashoffset: 0; stroke-linejoin: miter; stroke-miterlimit: 4; fill: rgb(255,255,255); fill-rule: nonzero; opacity: 1; visibility: hidden;" vector-effect="non-scaling-stroke"  x="-540" y="-540" rx="0" ry="0" width="1080" height="1080" />
</g>
<g transform="matrix(1 0 0 1 540 540)" id="a8e0d5c2-b33e-47eb-9810-4f57504ad3b7"  >
</g>
<g transform="matrix(1.6 0 0 1.6 540 540)"  >
<path style="stroke: none; stroke-width: 1; stroke-dasharray: none; stroke-linecap: butt; stroke-dashoffset: 0; stroke-linejoin: miter; stroke-miterlimit: 4; fill: rgb(255,255,255); fill-rule: nonzero; opacity: 1;"  transform=" translate(-599.76, -600.3)" d="M 703.4952 693.567603 C 705.734196 693.567603 707.765286 693.935458 709.572475 694.671166 C 711.379665 695.406875 712.93097 696.43047 714.226389 697.709964 C 715.521808 698.989457 716.497371 700.508856 717.201056 702.252166 C 717.888747 703.995476 718.24059 705.834748 718.24059 707.785976 C 718.24059 709.113451 718.112647 710.280988 717.840769 711.256602 C 717.568891 712.232216 717.217048 713.111868 716.769249 713.895558 C 716.32145 714.679248 715.809679 715.382969 715.233937 716.006722 C 714.658196 716.630476 714.066461 717.270222 713.44274 717.941956 C 713.010934 718.277824 712.627106 718.43776 712.307249 718.43776 C 711.923422 718.43776 711.587572 718.293817 711.299701 718.005931 L 707.157558 714.567292 C 706.77373 714.279406 706.581816 713.959533 706.581816 713.607672 C 706.581816 713.255811 706.741745 712.935938 707.077594 712.648052 C 707.893228 711.832374 708.532942 711.096666 709.012726 710.424932 C 709.492511 709.753197 709.732404 708.76159 709.732404 707.418122 C 709.732404 705.898723 709.20464 704.571248 708.165106 703.451691 C 707.10958 702.332134 705.574268 701.772356 703.511193 701.772356 C 701.656024 701.772356 700.168691 702.252166 699.081179 703.195793 C 697.977673 704.155413 697.433917 705.562856 697.433917 707.418122 C 697.433917 708.809571 697.833738 710.073071 698.617387 711.208621 C 699.401035 712.360166 700.664469 713.703634 702.407687 715.25502 C 704.150906 716.806406 706.421888 718.74164 709.236626 721.044729 C 712.051364 723.363811 715.489823 726.354627 719.536009 730.017177 C 719.919837 729.633329 720.399622 729.137526 720.959371 728.513772 C 721.535113 727.890019 722.062876 727.314247 722.526668 726.80245 C 722.814539 726.418602 723.150388 726.226678 723.534216 726.226678 C 723.822087 726.226678 724.109958 726.370621 724.397829 726.658507 L 728.827843 730.94481 C 729.547521 731.616544 729.595499 732.33626 728.971779 733.087962 C 728.491994 733.663734 728.028202 734.207519 727.580403 734.73531 C 727.132603 735.263101 726.71679 735.710924 726.332962 736.094772 L 731.834495 741.452652 C 732.506194 742.124386 732.842044 742.876088 732.842044 743.739746 C 732.842044 744.603405 732.506194 745.355107 731.834495 746.026841 L 728.539972 749.321537 C 728.252101 749.609423 727.916252 749.753366 727.532424 749.753366 C 727.148596 749.753366 726.812747 749.609423 726.524876 749.321537 L 719.951822 742.956057 C 717.328998 745.531038 714.562239 747.450278 711.651543 748.713778 C 708.740848 749.977278 705.382354 750.601031 701.560067 750.601031 C 699.081179 750.601031 696.794204 750.24917 694.699143 749.529455 C 692.604082 748.80974 690.796893 747.818132 689.261581 746.522645 C 687.726269 745.227158 686.5428 743.691765 685.679187 741.916468 C 684.815574 740.125177 684.39976 738.141962 684.39976 735.950829 C 684.39976 734.527392 684.575682 733.151937 684.927524 731.840456 C 685.279366 730.528975 685.887094 729.217494 686.718721 727.906013 C 687.550348 726.594532 688.63786 725.267057 689.965265 723.939583 C 691.29267 722.612108 692.923939 721.204665 694.827086 719.717254 C 693.579645 718.43776 692.572097 717.286216 691.788448 716.278615 C 691.004799 715.271014 690.365086 714.311393 689.885301 713.38376 C 689.405516 712.456128 689.08566 711.528495 688.925731 710.600862 C 688.765803 709.673229 688.669846 708.617647 688.669846 707.418122 C 688.669846 705.322951 689.069667 703.419704 689.853316 701.740369 C 690.636964 700.04504 691.708484 698.589616 693.067875 697.374097 C 694.427265 696.158578 695.994562 695.214951 697.785759 694.543217 C 699.592949 693.90347 701.480103 693.567603 703.4952 693.567603 Z M 893.873853 704.587242 C 896.784548 704.587242 899.359394 705.099039 901.59839 706.122634 C 903.837386 707.146229 905.740533 708.553672 907.275845 710.344963 C 908.811157 712.136254 910.010619 714.215431 910.81026 716.598488 C 911.625895 718.981545 912.025715 721.508545 912.025715 724.179488 L 912.025715 726.002766 C 912.025715 726.594532 911.99373 727.090336 911.961744 727.474184 C 911.817809 728.993583 911.306038 730.065158 910.426432 730.688912 C 909.546827 731.312665 908.4913 731.616544 907.243859 731.616544 L 881.783273 731.616544 C 882.359015 733.423829 883.142664 734.959222 884.150212 736.222722 C 885.15776 737.486221 886.277259 738.509816 887.540692 739.293506 C 888.804126 740.077196 890.179509 740.652968 891.65085 741.004829 C 893.12219 741.388677 894.625516 741.564607 896.144835 741.564607 C 897.376283 741.564607 898.655709 741.452652 899.967121 741.212747 C 901.278533 740.972842 902.701895 740.668962 904.221214 740.285114 C 904.748978 740.141171 905.196777 740.029215 905.580605 739.96524 C 905.964433 739.901266 906.348261 739.853285 906.732089 739.853285 C 907.691658 739.853285 908.523286 740.09319 909.274949 740.573 C 910.010619 741.05281 910.554375 741.740538 910.890225 742.652177 L 911.529938 744.587411 C 911.625895 744.875297 911.673873 745.131196 911.673873 745.371101 C 911.673873 746.090816 911.098131 746.76255 909.96264 747.402297 C 908.827149 748.042044 907.435773 748.601822 905.820497 749.081632 C 904.205221 749.561442 902.541967 749.929297 900.846727 750.185196 C 899.151487 750.441094 897.728125 750.585037 896.592634 750.585037 C 893.298111 750.585037 890.195502 750.057246 887.3008 748.969677 C 884.390105 747.898101 881.847245 746.362708 879.640234 744.3635 C 877.433223 742.364291 875.705998 739.949247 874.426571 737.134361 C 873.147145 734.319475 872.491439 731.200709 872.491439 727.76207 C 872.491439 724.563336 873.019202 721.556526 874.058736 718.757634 C 875.114263 715.942748 876.569611 713.495716 878.456764 711.384552 C 880.343918 709.289381 882.598908 707.626039 885.221732 706.41052 C 887.844556 705.195001 890.723265 704.587242 893.873853 704.587242 Z M 641.79486 704.587242 C 644.705555 704.587242 647.280401 705.099039 649.519397 706.122634 C 651.758394 707.146229 653.66154 708.553672 655.196852 710.344963 C 656.732164 712.136254 657.931626 714.215431 658.731268 716.598488 C 659.546902 718.981545 659.946723 721.508545 659.946723 724.179488 L 659.946723 726.002766 C 659.946723 726.594532 659.914737 727.090336 659.882751 727.474184 C 659.738816 728.993583 659.227045 730.065158 658.34744 730.688912 C 657.467834 731.312665 656.412307 731.616544 655.164866 731.616544 L 629.70428 731.616544 C 630.280022 733.423829 631.063671 734.959222 632.071219 736.222722 C 633.078768 737.486221 634.198266 738.509816 635.461699 739.293506 C 636.725133 740.077196 638.100516 740.652968 639.571857 741.004829 C 641.043197 741.35669 642.53053 741.564607 644.065842 741.564607 C 645.29729 741.564607 646.576717 741.452652 647.888129 741.212747 C 649.199541 740.972842 650.622903 740.668962 652.142222 740.285114 C 652.669985 740.141171 653.117784 740.029215 653.501612 739.96524 C 653.88544 739.901266 654.269268 739.853285 654.653096 739.853285 C 655.612666 739.853285 656.444293 740.09319 657.195956 740.573 C 657.931626 741.05281 658.475382 741.740538 658.811232 742.652177 L 659.450945 744.587411 C 659.546902 744.875297 659.59488 745.131196 659.59488 745.371101 C 659.59488 746.090816 659.019139 746.76255 657.883648 747.402297 C 656.748157 748.042044 655.35678 748.601822 653.741505 749.081632 C 652.126229 749.561442 650.462974 749.929297 648.767734 750.185196 C 647.072494 750.441094 645.649132 750.585037 644.513641 750.585037 C 641.219118 750.585037 638.116509 750.057246 635.221807 748.969677 C 632.311112 747.898101 629.768252 746.362708 627.561241 744.3635 C 625.354231 742.364291 623.627005 739.949247 622.347578 737.134361 C 621.052159 734.319475 620.412446 731.200709 620.412446 727.76207 C 620.412446 724.563336 620.940209 721.556526 621.979743 718.757634 C 623.03527 715.942748 624.490618 713.495716 626.377772 711.384552 C 628.264926 709.289381 630.519915 707.626039 633.142739 706.41052 C 635.765563 705.195001 638.644273 704.587242 641.79486 704.587242 Z M 479.643553 704.651217 C 482.79414 704.651217 485.752814 705.258976 488.551559 706.474495 C 491.334312 707.690014 493.781215 709.337362 495.876276 711.416539 C 497.971336 713.495716 499.634591 715.926754 500.850046 718.709653 C 502.065501 721.492551 502.673229 724.467374 502.673229 727.618127 C 502.673229 730.76888 502.065501 733.727709 500.850046 736.47862 C 499.634591 739.245525 497.971336 741.676563 495.876276 743.771734 C 493.781215 745.866905 491.334312 747.530246 488.551559 748.745765 C 485.768807 749.961284 482.79414 750.569044 479.643553 750.569044 C 476.492965 750.569044 473.534292 749.961284 470.783525 748.745765 C 468.016765 747.530246 465.601848 745.866905 463.52278 743.771734 C 461.443712 741.676563 459.79645 739.245525 458.580995 736.47862 C 457.36554 733.711715 456.757813 730.76888 456.757813 727.618127 C 456.757813 724.467374 457.36554 721.508545 458.580995 718.709653 C 459.79645 715.926754 461.443712 713.495716 463.52278 711.416539 C 465.601848 709.337362 468.016765 707.690014 470.783525 706.474495 C 473.550284 705.258976 476.508958 704.651217 479.643553 704.651217 Z M 565.541045 704.651217 C 568.691633 704.651217 571.650306 705.258976 574.449051 706.474495 C 577.231804 707.690014 579.678707 709.337362 581.773768 711.416539 C 583.868829 713.495716 585.532083 715.926754 586.747538 718.709653 C 587.962993 721.492551 588.570721 724.467374 588.570721 727.618127 C 588.570721 730.76888 587.962993 733.727709 586.747538 736.47862 C 585.532083 739.245525 583.868829 741.676563 581.773768 743.771734 C 579.678707 745.866905 577.231804 747.530246 574.449051 748.745765 C 571.666299 749.961284 568.691633 750.569044 565.541045 750.569044 C 562.390457 750.569044 559.431784 749.961284 556.681017 748.745765 C 553.914257 747.530246 551.49934 745.866905 549.420272 743.771734 C 547.341204 741.676563 545.693942 739.245525 544.478487 736.47862 C 543.263032 733.711715 542.655305 730.76888 542.655305 727.618127 C 542.655305 724.467374 543.263032 721.508545 544.478487 718.709653 C 545.693942 715.926754 547.341204 713.495716 549.420272 711.416539 C 551.49934 709.337362 553.914257 707.690014 556.681017 706.474495 C 559.447777 705.258976 562.40645 704.651217 565.541045 704.651217 Z M 360.081153 704.587242 C 362.991848 704.587242 365.566694 705.099039 367.80569 706.122634 C 370.044686 707.146229 371.947833 708.553672 373.483145 710.344963 C 375.018456 712.136254 376.217919 714.215431 377.01756 716.598488 C 377.833195 718.981545 378.233015 721.508545 378.233015 724.179488 L 378.233015 726.002766 C 378.233015 726.594532 378.20103 727.090336 378.169044 727.474184 C 378.025108 728.993583 377.513338 730.065158 376.633732 730.688912 C 375.754127 731.312665 374.6986 731.616544 373.451159 731.616544 L 347.990573 731.616544 C 348.566315 733.423829 349.349964 734.959222 350.357512 736.222722 C 351.36506 737.486221 352.500551 738.509816 353.79597 739.293506 C 355.09139 740.077196 356.466773 740.652968 357.938114 741.004829 C 359.409454 741.35669 360.91278 741.53262 362.448092 741.53262 C 363.67954 741.53262 364.942973 741.420664 366.238392 741.180759 C 367.517819 740.940854 368.925188 740.636974 370.4605 740.253126 C 370.988263 740.109183 371.436062 739.997228 371.81989 739.933253 C 372.203718 739.869278 372.587546 739.821297 372.971374 739.821297 C 373.930944 739.821297 374.778564 740.061202 375.54622 740.541012 C 376.313876 741.020823 376.841639 741.70855 377.113517 742.62019 L 377.75323 744.555424 C 377.849187 744.84331 377.897166 745.099208 377.897166 745.339114 C 377.897166 746.058829 377.321424 746.730563 376.185933 747.37031 C 375.034449 748.010056 373.675059 748.569835 372.075776 749.049645 C 370.476493 749.529455 368.813238 749.89731 367.102005 750.153208 C 365.390772 750.409107 363.951418 750.55305 362.815927 750.55305 C 359.521404 750.55305 356.418795 750.025259 353.524092 748.937689 C 350.62939 747.85012 348.070537 746.330721 345.863527 744.331512 C 343.656516 742.332304 341.92929 739.917259 340.649864 737.102373 C 339.354445 734.287487 338.714731 731.168722 338.714731 727.730083 C 338.714731 724.531349 339.242495 721.524539 340.282029 718.725646 C 341.337556 715.91076 342.792903 713.463729 344.680057 711.352564 C 346.567211 709.257394 348.8222 707.594052 351.445024 706.378533 C 354.035863 705.195001 356.930565 704.587242 360.081153 704.587242 Z M 437.582409 705.163014 C 439.773427 705.163014 441.836502 705.578849 443.771634 706.41052 C 445.706767 707.242191 447.386014 708.377742 448.809376 709.801178 C 450.232738 711.224615 451.368229 712.919944 452.199856 714.839184 C 453.031483 716.774419 453.447297 718.837602 453.447297 721.028735 C 453.447297 724.035545 452.711626 726.738475 451.224293 729.153519 C 449.752953 731.568563 447.833813 733.455817 445.49886 734.831272 C 445.115032 735.071177 445.051061 735.375057 445.290953 735.758905 L 454.950623 748.489867 C 455.238494 749.017658 455.302465 749.417499 455.15853 749.673398 C 455.014594 749.929297 454.71073 750.07324 454.230945 750.07324 L 445.866695 750.07324 C 445.530846 750.07324 445.290953 749.961284 445.147018 749.721379 L 437.310531 738.909658 C 436.111068 737.294297 434.575757 736.47862 432.656617 736.47862 L 430.513578 736.47862 C 430.12975 736.47862 429.937836 736.718525 429.937836 737.198335 L 429.937836 746.138797 C 429.937836 748.713778 428.626424 750.009265 426.0036 750.009265 L 422.213299 750.009265 C 421.301708 750.009265 420.853908 749.561442 420.853908 748.649803 L 420.853908 708.953514 C 420.853908 706.426514 422.133335 705.163014 424.70818 705.163014 L 437.582409 705.163014 Z M 756.751325 705.163014 C 757.710895 705.163014 758.574508 705.434906 759.358157 705.978691 C 760.141805 706.522476 760.701554 707.258185 761.037404 708.15383 L 771.112887 736.398652 C 771.256822 736.830481 771.416751 737.038399 771.608665 737.038399 C 771.800579 737.038399 771.960507 736.830481 772.104442 736.398652 L 782.227904 708.15383 C 782.563753 707.242191 783.123502 706.522476 783.907151 705.978691 C 784.6908 705.434906 785.570406 705.163014 786.513983 705.163014 L 791.871581 705.163014 C 793.007072 705.163014 793.3909 705.706799 793.007072 706.810362 L 776.566442 748.649803 C 776.182614 749.561442 775.510915 750.009265 774.567338 750.009265 L 768.697969 750.009265 C 768.266163 750.009265 767.882335 749.89731 767.5145 749.657404 C 767.162658 749.417499 766.906772 749.081632 766.762837 748.649803 L 750.306215 706.810362 C 749.922387 705.706799 750.306215 705.163014 751.457698 705.163014 L 756.751325 705.163014 Z M 524.99922 705.163014 C 527.190238 705.163014 529.253313 705.578849 531.188445 706.41052 C 533.123578 707.242191 534.802825 708.377742 536.226187 709.801178 C 537.649549 711.224615 538.78504 712.919944 539.616667 714.839184 C 540.448294 716.774419 540.864108 718.837602 540.864108 721.028735 C 540.864108 723.219868 540.448294 725.299045 539.616667 727.250273 C 538.78504 729.2015 537.649549 730.896829 536.226187 732.320266 C 534.802825 733.743703 533.107585 734.879253 531.188445 735.710924 C 529.269306 736.542595 527.222223 736.95843 525.079184 736.95843 L 518.650066 736.95843 C 517.786453 736.95843 517.354647 737.342278 517.354647 738.109975 L 517.354647 746.138797 L 517.338654 746.138797 C 517.338654 748.713778 516.027242 750.009265 513.404418 750.009265 L 509.614117 750.009265 C 508.702526 750.009265 508.254726 749.561442 508.254726 748.649803 L 508.254726 708.953514 C 508.254726 706.426514 509.534153 705.163014 512.124991 705.163014 L 524.99922 705.163014 Z M 415.304396 705.179008 C 416.263966 705.179008 416.727758 705.658818 416.727758 706.602444 L 416.727758 712.472121 C 416.727758 713.431742 416.247973 713.895558 415.304396 713.895558 L 404.717142 713.895558 C 403.757573 713.895558 403.293781 714.375368 403.293781 715.318995 L 403.293781 746.778544 L 403.261795 746.778544 C 403.261795 747.738164 402.957931 748.50586 402.366196 749.097626 C 401.774462 749.689392 400.990813 749.993272 400.047236 749.993272 L 395.617222 749.993272 C 394.657652 749.993272 394.19386 749.513461 394.19386 748.569835 L 394.19386 715.318995 C 394.19386 714.359374 393.714075 713.895558 392.770498 713.895558 L 383.91047 713.895558 C 382.9509 713.895558 382.183244 713.591678 381.59151 712.999912 C 380.999775 712.408147 380.695911 711.624457 380.695911 710.68083 L 380.695911 706.602444 C 380.695911 705.642824 381.175696 705.179008 382.119273 705.179008 L 415.304396 705.179008 Z M 295.134269 705.163014 C 296.189795 705.163014 297.069401 705.354938 297.821064 705.738786 C 298.556734 706.122634 299.244426 706.762381 299.852154 707.67402 L 309.799694 721.684475 C 310.039586 722.068323 310.34345 722.260247 310.727278 722.260247 C 311.111106 722.260247 311.41497 722.068323 311.654862 721.684475 L 321.666374 707.67402 C 322.194138 706.762381 322.833851 706.122634 323.601507 705.738786 C 324.369163 705.354938 325.296747 705.163014 326.384259 705.163014 L 332.253628 705.163014 C 333.069262 705.163014 333.469083 705.594843 333.469083 706.442508 L 333.469083 748.63381 C 333.469083 749.545449 333.069262 749.993272 332.253628 749.993272 L 328.175456 749.993272 C 325.648589 749.993272 324.385155 748.713778 324.385155 746.122803 L 324.385155 721.668482 C 324.385155 720.900785 324.177249 720.516937 323.745442 720.516937 C 323.457571 720.516937 323.1697 720.708861 322.881829 721.09271 L 313.382088 734.335468 C 312.614432 735.471019 311.734826 736.046791 310.727278 736.046791 C 309.767708 736.046791 308.87211 735.471019 308.008497 734.335468 L 298.636698 721.108703 C 298.348827 720.772836 298.060956 720.612899 297.773086 720.612899 C 297.341279 720.612899 297.133372 720.96476 297.133372 721.684475 L 297.133372 726.402608 C 297.133372 728.113931 296.621602 729.601342 295.598061 730.864842 C 294.574519 732.128342 293.231122 732.944019 291.551875 733.327867 L 290.976133 733.391842 L 295.773982 733.391842 C 296.685573 733.391842 297.133372 733.839665 297.133372 734.751304 L 297.133372 746.122803 C 297.133372 748.697784 295.82196 749.993272 293.199136 749.993272 L 289.408835 749.993272 C 288.497244 749.993272 288.049445 749.545449 288.049445 748.63381 L 288.049445 706.442508 C 288.049445 705.578849 288.497244 705.163014 289.408835 705.163014 L 295.134269 705.163014 Z M 803.258476 705.163014 C 804.218046 705.163014 804.985702 705.466894 805.577436 706.05866 C 806.169171 706.650425 806.473035 707.434115 806.473035 708.377742 L 806.473035 748.569835 C 806.473035 749.529455 805.99325 749.993272 805.049673 749.993272 L 798.828462 749.993272 C 797.868892 749.993272 797.4051 749.513461 797.4051 748.569835 L 797.4051 706.586451 C 797.4051 705.62683 797.884885 705.163014 798.828462 705.163014 L 803.258476 705.163014 Z M 598.598225 705.083046 C 601.205057 705.083046 602.516469 706.346546 602.516469 708.873546 L 602.516469 739.917259 C 602.516469 740.780918 602.948275 741.212747 603.811888 741.212747 L 615.246762 741.212747 C 617.821607 741.212747 619.117027 742.524228 619.117027 745.147189 L 619.117027 748.585829 C 619.117027 749.497468 618.68522 749.945291 617.8376 749.945291 L 597.318799 749.945291 C 594.743953 749.945291 593.448534 748.665797 593.448534 746.074822 L 593.448534 706.378533 C 593.448534 705.514875 593.896333 705.083046 594.807925 705.083046 L 598.598225 705.083046 Z M 820.914561 705.083046 C 823.537385 705.083046 824.848797 706.346546 824.848797 708.873546 L 824.848797 739.917259 C 824.848797 740.780918 825.280603 741.212747 826.128223 741.212747 L 837.57909 741.212747 C 840.153936 741.212747 841.449355 742.524228 841.449355 745.147189 L 841.449355 748.585829 C 841.449355 749.497468 841.017549 749.945291 840.153936 749.945291 L 819.635134 749.945291 C 817.060289 749.945291 815.764869 748.665797 815.764869 746.074822 L 815.764869 706.378533 C 815.764869 705.514875 816.212669 705.083046 817.12426 705.083046 L 820.914561 705.083046 Z M 850.661225 705.083046 C 853.284049 705.083046 854.595462 706.346546 854.595462 708.873546 L 854.595462 739.917259 C 854.595462 740.780918 855.027268 741.212747 855.874888 741.212747 L 867.325755 741.212747 C 869.9006 741.212747 871.196019 742.524228 871.196019 745.147189 L 871.196019 748.585829 C 871.196019 749.497468 870.764213 749.945291 869.9006 749.945291 L 849.381799 749.945291 C 846.806953 749.945291 845.511534 748.665797 845.511534 746.074822 L 845.511534 706.378533 C 845.511534 705.514875 845.959333 705.083046 846.870924 705.083046 L 850.661225 705.083046 Z M 701.480103 725.682893 C 700.424576 726.306646 699.417028 727.010367 698.441466 727.826045 C 697.465903 728.641722 696.60229 729.489386 695.86662 730.369038 C 695.13095 731.24869 694.539215 732.176323 694.075423 733.151937 C 693.627624 734.143544 693.403724 735.119158 693.403724 736.126759 C 693.403724 737.278304 693.659609 738.22193 694.155387 738.989626 C 694.651165 739.757323 695.322864 740.365082 696.154491 740.812905 C 696.986118 741.260728 697.913702 741.596595 698.905258 741.820506 C 699.912806 742.028424 700.904361 742.140379 701.91191 742.140379 C 704.054949 742.140379 706.15001 741.596595 708.213085 740.493031 C 710.260167 739.389468 712.003386 738.109975 713.426748 736.622563 L 701.480103 725.682893 Z M 479.643553 713.751615 C 477.740406 713.751615 475.933216 714.103476 474.237976 714.823191 C 472.542736 715.542906 471.087389 716.51852 469.839948 717.750032 C 468.592507 718.997539 467.616944 720.452963 466.91326 722.148292 C 466.209575 723.843621 465.84174 725.666899 465.84174 727.618127 C 465.84174 729.521374 466.193582 731.328658 466.91326 733.023987 C 467.632937 734.719317 468.6085 736.190734 469.839948 737.454234 C 471.071396 738.717734 472.542736 739.709342 474.237976 740.429057 C 475.933216 741.148772 477.724413 741.500633 479.643553 741.500633 C 481.594678 741.500633 483.417861 741.148772 485.113101 740.429057 C 486.808341 739.709342 488.263688 738.717734 489.511129 737.454234 C 490.742577 736.190734 491.734133 734.719317 492.437817 733.023987 C 493.157495 731.328658 493.509337 729.537367 493.509337 727.618127 C 493.509337 725.666899 493.157495 723.843621 492.437817 722.148292 C 491.71814 720.452963 490.742577 718.997539 489.511129 717.750032 C 488.263688 716.51852 486.808341 715.526912 485.113101 714.823191 C 483.417861 714.103476 481.594678 713.751615 479.643553 713.751615 Z M 565.541045 713.751615 C 563.637898 713.751615 561.830708 714.103476 560.135468 714.823191 C 558.440228 715.542906 556.984881 716.51852 555.73744 717.750032 C 554.489999 718.997539 553.514436 720.452963 552.810752 722.148292 C 552.091075 723.843621 551.739232 725.666899 551.739232 727.618127 C 551.739232 729.521374 552.091075 731.328658 552.810752 733.023987 C 553.530429 734.719317 554.505992 736.190734 555.73744 737.454234 C 556.968888 738.717734 558.440228 739.709342 560.135468 740.429057 C 561.830708 741.148772 563.621905 741.500633 565.541045 741.500633 C 567.49217 741.500633 569.315353 741.148772 571.010593 740.429057 C 572.705833 739.709342 574.16118 738.717734 575.408621 737.454234 C 576.640069 736.190734 577.631625 734.719317 578.335309 733.023987 C 579.054987 731.328658 579.406829 729.537367 579.406829 727.618127 C 579.406829 725.666899 579.054987 723.843621 578.335309 722.148292 C 577.615632 720.452963 576.640069 718.997539 575.408621 717.750032 C 574.16118 716.51852 572.705833 715.526912 571.010593 714.823191 C 569.315353 714.103476 567.49217 713.751615 565.541045 713.751615 Z M 525.351062 713.895558 L 518.778009 713.895558 C 517.818439 713.895558 517.354647 714.375368 517.354647 715.318995 L 517.354647 726.834437 L 517.338654 726.834437 C 517.338654 727.794057 517.818439 728.257874 518.762016 728.257874 L 525.127162 728.257874 C 526.086732 728.257874 526.966338 728.06595 527.813958 727.682102 C 528.645585 727.298254 529.381255 726.770462 529.988983 726.114722 C 530.612703 725.442988 531.108481 724.675292 531.492309 723.79564 C 531.876137 722.915988 532.068051 722.004349 532.068051 721.044729 C 532.068051 718.997539 531.412345 717.286216 530.100933 715.926754 C 528.789521 714.567292 527.20623 713.895558 525.351062 713.895558 Z M 437.98223 713.911552 L 431.185277 713.911552 C 430.321664 713.911552 429.90585 714.359374 429.90585 715.271014 L 429.90585 726.610526 L 429.937836 726.610526 C 429.937836 727.522165 430.369642 727.969988 431.217262 727.969988 L 437.790316 727.969988 C 438.701907 727.969988 439.549527 727.778064 440.365161 727.394216 C 441.180796 727.010367 441.900473 726.482576 442.540186 725.826836 C 443.1799 725.155102 443.707663 724.387406 444.107484 723.507754 C 444.507304 722.628102 444.715211 721.668482 444.715211 720.612899 C 444.715211 719.653279 444.53929 718.773627 444.171455 717.973944 C 443.80362 717.17426 443.323835 716.454545 442.700115 715.830792 C 442.076394 715.207039 441.37271 714.727229 440.557075 714.407355 C 439.741441 714.071488 438.893821 713.911552 437.98223 713.911552 Z M 893.713925 712.760007 C 892.002692 712.760007 890.451387 713.063887 889.060011 713.68764 C 887.684628 714.311393 886.485165 715.111077 885.477617 716.118678 C 884.470069 717.126279 883.68642 718.229843 883.110678 719.445361 C 882.534936 720.66088 882.183094 721.860406 882.039158 723.059931 L 902.22211 723.059931 L 902.22211 723.043937 C 903.277637 722.947975 903.789408 722.468165 903.789408 721.620501 C 903.789408 720.293026 903.533523 719.077507 903.005759 718.005931 C 902.477996 716.934355 901.758318 716.006722 900.86272 715.223033 C 899.951129 714.439343 898.879609 713.831583 897.648161 713.399754 C 896.416713 712.967925 895.105301 712.760007 893.713925 712.760007 Z M 641.634932 712.760007 C 639.923699 712.760007 638.372395 713.063887 636.981018 713.68764 C 635.589642 714.311393 634.406173 715.111077 633.398624 716.118678 C 632.391076 717.126279 631.607427 718.229843 631.031685 719.445361 C 630.455943 720.66088 630.104101 721.860406 629.960166 723.059931 L 650.143118 723.059931 L 650.143118 723.043937 C 651.198645 722.947975 651.710415 722.468165 651.710415 721.620501 C 651.710415 720.293026 651.438537 719.077507 650.926766 718.005931 C 650.399003 716.934355 649.679326 716.006722 648.783727 715.223033 C 647.872136 714.439343 646.800616 713.831583 645.569168 713.399754 C 644.321727 712.967925 643.010315 712.760007 641.634932 712.760007 Z M 359.937217 712.744014 C 358.225984 712.744014 356.67468 713.047893 355.283304 713.671647 C 353.891927 714.2954 352.708458 715.095083 351.70091 716.102684 C 350.693361 717.110286 349.909713 718.213849 349.333971 719.429368 C 348.758229 720.644887 348.406387 721.844412 348.262451 723.043937 L 368.445403 723.043937 C 369.484937 722.947975 370.0127 722.468165 370.0127 721.604507 C 370.0127 720.277032 369.740822 719.061513 369.229052 717.989938 C 368.701288 716.918362 367.981611 715.990729 367.086012 715.207039 C 366.174421 714.423349 365.102902 713.81559 363.871454 713.38376 C 362.624013 712.951931 361.312601 712.744014 359.937217 712.744014 Z M 360.704873 692.703945 C 361.664443 692.703945 362.528056 693.007825 363.311705 693.631578 C 364.095353 694.255331 364.559145 695.039021 364.703081 695.998641 C 364.847016 697.054223 364.607124 697.917881 363.983403 698.605609 C 363.359683 699.293337 362.576034 699.805135 361.616465 700.141002 L 355.635146 702.012261 C 355.251318 702.108223 354.963447 702.156204 354.771533 702.156204 C 353.90792 702.156204 353.204236 701.868318 352.628494 701.292546 C 352.340623 701.00466 352.196687 700.652799 352.196687 700.22097 C 352.196687 699.789141 352.340623 699.43728 352.628494 699.149394 L 358.561834 693.567603 C 359.233533 692.991831 359.937217 692.703945 360.704873 692.703945 Z M 801.595222 692.719939 C 802.922627 692.719939 804.090103 693.151768 805.065666 693.999432 C 806.057221 694.86309 806.537006 695.902679 806.537006 697.150185 C 806.537006 698.397692 806.041228 699.43728 805.065666 700.300938 C 804.090103 701.164596 802.938619 701.596426 801.595222 701.596426 C 800.219838 701.596426 799.052362 701.164596 798.092792 700.300938 C 797.133222 699.43728 796.66943 698.397692 796.66943 697.150185 C 796.66943 695.902679 797.149215 694.86309 798.092792 693.999432 C 799.052362 693.135774 800.219838 692.719939 801.595222 692.719939 Z M 837.275226 491.631523 L 837.275226 491.807454 C 834.604424 496.077764 833.900739 499.452428 833.900739 501.947441 C 833.900739 518.660826 857.026372 530.048319 876.761524 538.061148 C 911.082139 551.92766 936.526732 568.481109 936.526732 607.249765 C 936.526732 652.783744 901.310519 681.604338 858.097891 681.604338 C 826.592016 681.572351 799.915974 666.282402 781.956026 639.60496 C 779.461144 636.054365 780.532664 632.311846 784.450907 630.536549 L 799.931967 623.067505 C 800.827566 622.539714 801.883093 622.891575 802.426849 623.78722 C 814.69335 644.594985 835.324101 655.630617 859.345332 655.630617 C 888.164413 655.630617 910.570368 635.894428 910.570368 608.849132 C 910.570368 586.074146 902.749874 577.72545 867.165826 562.611432 C 855.075246 557.445476 828.207291 544.65054 816.468554 529.520528 C 820.73864 515.829946 825.888331 501.41965 837.275226 491.631523 Z M 379.44847 497.309276 L 410.042755 629.816834 C 410.570518 632.487777 409.514992 634.087144 406.844189 634.790865 L 399.023695 636.566163 C 397.072569 637.093954 395.281372 636.566163 393.682089 635.318656 L 304.41011 563.826951 C 301.563386 561.507868 299.068505 563.29916 299.964103 566.849754 L 303.338591 581.963773 C 305.833472 592.45562 301.915229 603.843113 293.918813 610.784366 L 292.143609 612.207803 L 303.354583 609.53686 C 307.096906 608.641214 309.927637 610.608436 310.823235 614.159031 L 317.380296 642.803694 C 319.1555 650.624599 315.956934 655.790554 308.13644 657.565852 L 298.716663 659.69301 C 296.04586 660.412725 294.270656 659.341149 293.742892 656.670206 L 263.132615 524.162649 C 262.604852 521.491706 263.660378 519.716408 266.15526 519.188617 L 275.399116 517.061459 C 281.620327 515.638022 286.61009 516.885529 291.759781 520.803978 L 366.286371 579.852608 C 369.309016 582.17169 371.803897 580.748254 370.908299 577.005735 L 355.811067 511.175788 C 354.035863 503.354884 357.234429 498.188928 365.054923 496.413631 L 374.4747 494.286473 C 377.145503 493.582751 378.744786 494.638333 379.44847 497.309276 Z M 870.74822 450 C 892.578434 450 906.812053 456.397468 924.420159 468.840543 C 925.491679 469.544265 925.6676 470.615841 924.772001 471.687417 L 919.606317 477.557094 C 916.23183 481.299613 910.538382 484.674277 905.740533 484.674277 C 902.893809 484.674277 900.398928 483.778631 896.320756 481.827404 C 888.500262 477.908954 879.960091 475.429936 868.925038 475.429936 C 823.921213 475.429936 813.429916 519.716408 807.560547 550.312299 C 798.844455 596.198139 774.471381 641.556188 722.190819 641.556188 C 682.000836 641.556188 645.18534 615.230607 645.18534 570.944134 C 645.18534 553.511033 650.878788 537.325439 660.6664 524.882364 L 639.683807 524.882364 C 637.732681 524.882364 636.133398 526.481731 636.133398 528.432959 L 636.133398 609.53686 C 636.133398 616.110258 632.758911 619.676847 625.993944 619.676847 L 615.678568 619.676847 C 613.359608 619.676847 612.304081 618.605271 612.304081 616.126252 L 612.304081 528.432959 C 612.304081 526.3058 610.880719 524.882364 608.929594 524.882364 L 580.478349 524.882364 C 577.983467 524.882364 576.92794 523.810788 576.92794 521.507699 L 576.92794 512.087428 C 576.92794 505.514029 580.478349 502.123371 585.819954 502.123371 L 586.035474 502.123163 C 586.094523 502.123094 586.164978 502.123008 586.246601 502.122906 L 586.86847 502.122096 C 592.383826 502.114742 618.602468 502.076734 645.297834 502.038045 L 648.939166 502.032767 C 676.849576 501.99232 704.276164 501.952616 708.106929 501.947906 L 708.548934 501.947441 L 708.548934 501.947441 C 743.765147 501.947441 763.5003 528.448952 763.5003 563.139223 C 763.5003 574.350786 761.373253 582.875412 749.090759 582.875412 L 672.613044 582.875412 C 678.482413 604.578822 699.465007 615.774391 719.743916 615.774391 C 762.780622 615.774391 774.51936 581.084121 782.355847 544.442622 C 793.023064 494.638333 811.350848 450 870.74822 450 Z M 476.924772 533.263047 L 500.578168 591.959816 C 501.473766 593.911044 500.93001 595.878266 498.451121 596.757918 L 491.878068 599.42886 C 485.656857 601.923873 481.21085 600.500436 479.243732 595.334481 C 476.221087 600.82031 471.055403 608.481278 455.942178 614.702815 C 437.630387 621.995929 422.149328 613.63124 415.208439 596.741924 C 406.492347 574.862583 420.901887 561.347932 437.614395 551.383875 C 446.858251 545.866059 455.926185 540.540167 452.551698 532.175477 C 449.704974 525.058294 442.060401 525.058294 435.119513 527.905167 C 428.354546 530.752041 421.253729 536.445787 417.511407 540.716097 C 415.560281 543.035179 414.312841 543.914831 412.889479 544.458616 C 408.619393 546.057983 405.244906 544.810477 397.952175 538.413009 C 397.056577 537.885218 396.704734 537.341433 396.352892 536.637711 C 396.00105 535.566135 396.176971 534.318629 397.248491 533.263047 C 405.788662 522.051484 415.928117 514.40651 427.123098 509.960269 C 450.072809 500.539998 467.137159 509.064624 476.924772 533.263047 Z M 461.987468 557.781343 C 460.212264 558.852919 458.245146 559.908501 456.29402 560.804147 C 455.525405 561.210066 454.749132 561.619786 453.97008 562.034383 L 453.190281 562.450646 C 441.224706 568.859506 428.987862 576.499695 434.063986 589.256886 C 436.91071 596.374069 445.626803 597.797506 452.375777 595.126563 C 466.433475 589.432817 472.478765 576.445956 466.785317 562.579444 C 465.361955 559.02885 463.762672 556.885698 461.987468 557.781343 Z M 571.010593 499.052586 L 581.50189 583.899007 C 581.677811 585.674304 580.974126 586.74588 579.007008 586.92181 L 573.841324 587.625532 C 569.395317 588.153323 565.844909 586.92181 562.63035 583.707083 L 518.170281 538.876825 C 516.395077 537.277458 514.795794 538.173104 515.147636 540.300262 L 515.851321 546.345869 C 516.746919 553.287122 512.828676 559.50866 506.23963 561.827742 L 505.16811 562.179603 L 514.779801 560.932096 C 516.379084 560.756166 517.626525 561.635818 517.802446 563.427109 L 520.681156 585.354431 C 521.208919 591.048177 518.73003 594.422842 513.036583 595.142557 L 506.095694 595.846278 C 504.32049 596.198139 503.248971 595.318487 503.073049 593.527196 L 492.581753 508.680776 C 492.405832 506.905478 493.109516 506.009833 495.076634 505.657972 L 502.545286 504.762327 C 506.639451 504.234536 509.486174 505.290118 512.508819 508.136991 L 555.721447 551.351888 C 557.496651 552.951255 559.095934 552.247533 558.744092 549.928451 L 553.402487 506.3457 C 552.698802 501.179745 555.177691 498.348865 560.343375 497.62915 L 567.987948 496.733504 C 569.763152 496.557574 570.834672 497.261295 571.010593 499.052586 Z M 708.676877 526.481731 C 687.870205 526.481731 675.41179 543.38704 673.812507 557.781343 L 734.105477 557.781343 C 736.952201 557.781343 738.727405 556.181976 738.727405 551.016021 C 738.727405 537.325439 725.389385 526.481731 708.676877 526.481731 Z" stroke-linecap="round" />
</g>
</svg>